<svg id="Layer_1" data-name="Layer 1" xmlns="http://www.w3.org/2000/svg" viewBox="0 0 95.79 35.31"><defs><style>.cls-1{font-size:10px;font-family:Arial-ItalicMT, Arial;font-style:italic;}.cls-1,.cls-4{fill:#231f20;}.cls-2,.cls-4{font-size:12px;font-family:Arial-BoldMT, Arial;font-weight:700;}.cls-2{fill:#e01f26;}.cls-3{letter-spacing:-0.04em;}.cls-5{fill:#ffd465;}.cls-6{fill:#f3c95f;}.cls-7{fill:#cc803d;}.cls-8{fill:#f5f6f6;}.cls-9{fill:#e6e6e5;}</style></defs><text class="cls-1" transform="translate(28.43 20.15)">Pivovara</text><text class="cls-2" transform="translate(28.43 30.79)">Karl<tspan class="cls-3" x="23.34" y="0">’</tspan><tspan x="26.23" y="0">s</tspan></text><text class="cls-4" transform="translate(62.05 30.79)">BEER</text><path class="cls-5" d="M23.59,58.48A1.6,1.6,0,0,1,22,60.08H7.67a1.6,1.6,0,0,1-1.59-1.6V37.39A1.6,1.6,0,0,1,7.67,35.8H22a1.6,1.6,0,0,1,1.59,1.59Z" transform="translate(-2.1 -25.53)"/><path class="cls-5" d="M26.77,51.72H22V40.18h4.77a2.39,2.39,0,0,1,2.39,2.39v6.76A2.39,2.39,0,0,1,26.77,51.72Zm-3.18-1.59h3.18a.8.8,0,0,0,.8-.8V42.57a.8.8,0,0,0-.8-.8H23.59Z" transform="translate(-2.1 -25.53)"/><rect class="cls-6" x="20.69" y="16.25" width="0.8" height="8.36"/><path class="cls-6" d="M26.77,40.18H26a2.4,2.4,0,0,1,2.39,2.39v6.76A2.4,2.4,0,0,1,26,51.72h.79a2.39,2.39,0,0,0,2.39-2.39V42.57A2.39,2.39,0,0,0,26.77,40.18Z" transform="translate(-2.1 -25.53)"/><path class="cls-6" d="M22,35.8H20.8a1.6,1.6,0,0,1,1.6,1.59V58.48a1.6,1.6,0,0,1-1.6,1.6H22a1.6,1.6,0,0,0,1.59-1.6V37.39A1.6,1.6,0,0,0,22,35.8Z" transform="translate(-2.1 -25.53)"/><path class="cls-7" d="M8.47,52.91a.79.79,0,0,1-.8-.79V41.37a.8.8,0,0,1,1.6,0V52.12A.79.79,0,0,1,8.47,52.91Z" transform="translate(-2.1 -25.53)"/><path class="cls-7" d="M11.65,52.91a.79.79,0,0,1-.79-.79V41.37a.8.8,0,0,1,1.59,0V52.12A.79.79,0,0,1,11.65,52.91Z" transform="translate(-2.1 -25.53)"/><path class="cls-7" d="M21.2,52.91a.79.79,0,0,1-.79-.79V41.37a.8.8,0,0,1,1.59,0V52.12A.79.79,0,0,1,21.2,52.91Z" transform="translate(-2.1 -25.53)"/><path class="cls-7" d="M14.84,52.91a.79.79,0,0,1-.8-.79V41.37a.8.8,0,0,1,1.59,0V52.12A.79.79,0,0,1,14.84,52.91Z" transform="translate(-2.1 -25.53)"/><path class="cls-7" d="M18,52.91a.79.79,0,0,1-.8-.79V41.37a.8.8,0,0,1,1.6,0V52.12A.79.79,0,0,1,18,52.91Z" transform="translate(-2.1 -25.53)"/><path class="cls-8" d="M6.08,37h-2V48.56a2,2,0,1,0,2,2v0h0Z" transform="translate(-2.1 -25.53)"/><path class="cls-9" d="M6.08,37H5.29V50.53h0v0a2,2,0,0,1-1.6,2,1.75,1.75,0,0,0,.4,0,2,2,0,0,0,2-2v0h0Z" transform="translate(-2.1 -25.53)"/><path class="cls-8" d="M20.48,28.31h-.14a5.25,5.25,0,0,0-9.12-.27,5.16,5.16,0,0,0-2.28-.53,5.24,5.24,0,0,0-5.13,4.15A3.86,3.86,0,0,0,6.15,38.6a3.77,3.77,0,0,0,2.15-.66,4.49,4.49,0,0,0,.64,0,3.94,3.94,0,0,0,.6,0,5.23,5.23,0,0,0,3.38,1.23,5.18,5.18,0,0,0,4-1.83,5.17,5.17,0,0,0,3.59,1.44,5.24,5.24,0,1,0,0-10.47Z" transform="translate(-2.1 -25.53)"/><path class="cls-9" d="M20.48,28.31h-.14a5.25,5.25,0,0,0-4.64-2.79,5.06,5.06,0,0,0-.79.06,5.22,5.22,0,0,1,3.83,2.72h.14a5.24,5.24,0,0,1,.79,10.42,5.19,5.19,0,0,0,6-5.18A5.23,5.23,0,0,0,20.48,28.31Z" transform="translate(-2.1 -25.53)"/><path class="cls-9" d="M9.63,28a3.19,3.19,0,0,1,.3-.42,5.36,5.36,0,0,0-1-.11,5.55,5.55,0,0,0-.82.07A5.31,5.31,0,0,1,9.63,28Z" transform="translate(-2.1 -25.53)"/><path class="cls-9" d="M16,36.69a8.39,8.39,0,0,1-3.89,2.44,5.32,5.32,0,0,0,.81.06,5.23,5.23,0,0,0,4-1.83A5,5,0,0,1,16,36.69Z" transform="translate(-2.1 -25.53)"/></svg>